---
id: 5755f211-7c96-46fc-aa1f-ece978104aeb
---
classDiagram
    Pessoa <|-- Colaborador
    Colaborador <|-- Administrador
    SubCategoria ..> Item
    SubCategoria <.. Categoria
    Item..>Doacao
    Doacao..>Estoque
    Doador<..Doacao
    Item..>Paciente
    Origem_Destino..>Doacao
    Origem_Destino<|..Paciente
    Origem_Destino<|..Doador


    class Pessoa{
        -genericId
        +login(userName, password)
        +recuperarSenha(userName)
    }    

    class Colaborador{
        -userName
        -HashedPassword
        +logOut()
        +gerenciarPerfil()
        +consultarEstoque()
        +gerenciarSubCategorias()
        +genrenciarSolicRetDoacoes()
        +gerenciarMovimentacaoEstoque()

        
    }

    class Administrador{
        +gerenciarUsuarios()
        +gerarRelatorios()
        +gerenciarDoadores()
        +dashboardDeIndicadores()
        +gerenciarRemedios()
        +gerenciarAlimentos()
    }

    class Doacao{
        -Item item
        -Int quantidade
    }

    class Doador{
        -string nome
        -string telefone
        -string email
        -List~Doacao~doacoes
        +fazerDoacao(doacao)
    }

    class Item{
        -string nome        
        -tipoItem tipo
        -Categoria categoria
        
    }

    class Categoria{
        -int id
        -string nome
        -string descricao
        -List ~SubCategoria~ subCategorias
        -string unidade

        +adicionarSubCategoria(SubCategoria)
    }

    class SubCategoria{
        -Categoria categoria
        -int id
        -string nome
        -string descricao
    }

    class Paciente{
        List~Item~ Emprestimos
        +emprestarItem(Item)
    }

    class Estoque{
        Item item
        float quantidade
        +adcicionarItem(item, quantidade)
        +subtrairItem(item, quantidade)
        +alertarValidadeAlimentos(Estoque)
    }